<svg width="13" height="13" enable-background="new 0 0 47.5 47.5" version="1.1" viewBox="0 0 47.5 47.5" xml:space="preserve" xmlns="http://www.w3.org/2000/svg" ><defs><clipPath id="a"><path d="m0 38h38v-38h-38v38z"/></clipPath></defs><g transform="matrix(1.25,0,0,-1.25,0,47.5)"><g clip-path="url(#a)"><g transform="translate(33.415 27.414)"><path d="m0 0-9 9c-0.361 0.362-0.862 0.586-1.415 0.586-1.104 0-1.999-0.896-2-1.999 0-0.552 0.224-1.053 0.586-1.415l-3.859-3.859 9-9 3.859 3.859c0.362-0.362 0.862-0.586 1.414-0.586 1.104 0 2.001 0.896 2 2 0 0.553-0.224 1.052-0.585 1.414" fill="#e1e8ed"/></g><g transform="translate(23,37)"><path d="m0 0h-15c-2.209 0-4-1.791-4-4v-28c0-2.209 1.791-4 4-4h22c2.209 0 4 1.791 4 4v21h-9c-1 0-2 1-2 2v9z" fill="#c2e4f8"/></g><g transform="translate(23,37)"><path d="m0 0h-2v-9c0-2.209 1.791-4 4-4h9v2h-9c-1 0-2 1-2 2v9z" fill="#7ec5f0"/></g><g transform="translate(18,29)"><path d="m0 0c0-0.552-0.448-1-1-1h-8c-0.552 0-1 0.448-1 1s0.448 1 1 1h8c0.552 0 1-0.448 1-1" fill="#7ec5f0"/></g><g transform="translate(18,25)"><path d="m0 0c0-0.552-0.448-1-1-1h-8c-0.552 0-1 0.448-1 1s0.448 1 1 1h8c0.552 0 1-0.448 1-1" fill="#7ec5f0"/></g><g transform="translate(30,21)"><path d="m0 0c0-0.552-0.447-1-1-1h-20c-0.552 0-1 0.448-1 1s0.448 1 1 1h20c0.553 0 1-0.448 1-1" fill="#7ec5f0"/></g><g transform="translate(30,17)"><path d="m0 0c0-0.553-0.447-1-1-1h-20c-0.552 0-1 0.447-1 1s0.448 1 1 1h20c0.553 0 1-0.447 1-1" fill="#7ec5f0"/></g><g transform="translate(30,13)"><path d="m0 0c0-0.553-0.447-1-1-1h-20c-0.552 0-1 0.447-1 1s0.448 1 1 1h20c0.553 0 1-0.447 1-1" fill="#7ec5f0"/></g><g transform="translate(30,9)"><path d="m0 0c0-0.553-0.447-1-1-1h-20c-0.552 0-1 0.447-1 1s0.448 1 1 1h20c0.553 0 1-0.447 1-1" fill="#7ec5f0"/></g></g></g></svg>
