<svg width="13" height="13" viewBox="0 0 16 16" xmlns="http://www.w3.org/2000/svg">
<g transform="matrix(1.0664 0 0 1.0664 -1.03 -1106.2)" font-family="sans-serif" font-weight="400">
<path d="m8.4671 1037.3c-1.8071 0-3.282 1.4769-3.282 3.2864-2.95e-5 1.8095 1.4749 3.2846 3.282 3.2846 1.8071 0 3.282-1.4751 3.282-3.2846 2.9e-5 -1.8095-1.4749-3.2864-3.282-3.2864zm0 0.939c1.3003 0 2.3443 1.0454 2.3443 2.3474 2e-5 1.3021-1.044 2.3475-2.3443 2.3475-1.3003 0-2.3443-1.0454-2.3443-2.3475-2.11e-5 -1.302 1.044-2.3474 2.3443-2.3474zm-3.0128 6.571c-1.4415 0-2.6208 1.1676-2.6208 2.6042v1.6029 0.4438c-6e-6 0.7909 5e-7 1.5821 0 2.3731a0.46891 0.46954 0 0 0 0.46886 0.4695h10.331a0.46891 0.46954 0 0 0 0.46703-0.4695c0-0.791 9e-6 -1.5822 0-2.3731-1e-6 -0.1479 4e-6 -0.2959 0-0.4438v-1.6029c0-1.4366-1.1793-2.6042-2.6208-2.6042h-6.0256zm0 0.939h6.0256c0.94287 0 1.685 0.738 1.685 1.6652v1.6029c4e-6 0.1479-2e-6 0.2959 0 0.4438 5e-6 0.6344 2e-6 1.2691 0 1.9036h-9.3937c-6e-7 -0.6345-4.1e-6 -1.2692 0-1.9036 1e-6 -0.1479-2.6e-6 -0.2959 0-0.4438v-1.6029c0-0.9272 0.74026-1.6652 1.6831-1.6652z" fill="#249fe6" overflow="visible" style="block-progression:tb;isolation:auto;mix-blend-mode:normal;text-decoration-color:#000;text-decoration-line:none;text-decoration-style:solid;text-indent:0;text-transform:none" white-space="normal"/>
<path d="m8.4671 1038.3c1.3003 0 2.3443 1.0454 2.3443 2.3474 2e-5 1.3021-1.044 2.3475-2.3443 2.3475-1.3003 0-2.3443-1.0454-2.3443-2.3475-2.11e-5 -1.302 1.044-2.3474 2.3443-2.3474zm-3.0128 7.51h6.0256c0.94287 0 1.685 0.738 1.685 1.6652v1.6029 0.4438 1.9036h-9.3937v-1.9036-0.4438-1.6029c0-0.9272 0.74026-1.6652 1.6831-1.6652z" fill="#c2e4f8" overflow="visible" style="block-progression:tb;isolation:auto;mix-blend-mode:normal;text-decoration-color:#000;text-decoration-line:none;text-decoration-style:solid;text-indent:0;text-transform:none" white-space="normal"/>
</g>
</svg>
